# xmcd
#
# Track frame offsets:
#	150
#	12452
#	37485
#	49606
#	63243
#	77632
#	87220
#	105076
#	120146
#	138693
#
# Disc length: 1998 seconds
#
# Revision: 0
# Processed by: cddbd v1.5.2PL0 Copyright (c) Steve Scherf et al.
# Submitted via: EasyCDDAExtractor 11.1.0.1
#
DISCID=7807cc0a
DTITLE=Fleetwood Mac - Kiln House
DYEAR=1970
DGENRE=Classic Rock
TTITLE0=This Is The Rock
TTITLE1=Station Man
TTITLE2=Blood On The Floor
TTITLE3=Hi Ho Silver
TTITLE4=Jewel Eyed Lady
TTITLE5=Buddys Song
TTITLE6=Earl Gray
TTITLE7=One Together
TTITLE8=Tell Me All The Things You Do
TTITLE9=Mission Bell
EXTD=
EXTT0=
EXTT1=
EXTT2=
EXTT3=
EXTT4=
EXTT5=
EXTT6=
EXTT7=
EXTT8=
EXTT9=
PLAYORDER=
